<?xml version="1.0" encoding="UTF-8" standalone="no"?>
<!-- Created with Inkscape (http://www.inkscape.org/) -->

<svg
   width="906.94849"
   height="375.77057"
   viewBox="0 0 906.94849 375.77057"
   version="1.1"
   id="svg5"
   sodipodi:docname="/tmp/ink_ext_XXXXXX.svg5MVA61"
   inkscape:export-filename="hel.svg"
   inkscape:export-xdpi="61.439999"
   inkscape:export-ydpi="61.439999"
   xmlns:inkscape="http://www.inkscape.org/namespaces/inkscape"
   xmlns:sodipodi="http://sodipodi.sourceforge.net/DTD/sodipodi-0.dtd"
   xmlns="http://www.w3.org/2000/svg"
   xmlns:svg="http://www.w3.org/2000/svg">
  <sodipodi:namedview
     id="namedview7"
     pagecolor="#ffffff"
     bordercolor="#000000"
     borderopacity="0.25"
     inkscape:showpageshadow="2"
     inkscape:pageopacity="0.0"
     inkscape:pagecheckerboard="0"
     inkscape:deskcolor="#d1d1d1"
     inkscape:document-units="px"
     showgrid="false"
     showguides="true"
     inkscape:zoom="0.2799099"
     inkscape:cx="873.49537"
     inkscape:cy="712.72935"
     inkscape:window-width="1366"
     inkscape:window-height="704"
     inkscape:window-x="0"
     inkscape:window-y="27"
     inkscape:window-maximized="1"
     inkscape:current-layer="g1352" />
  <defs
     id="defs2" />
  <g
     inkscape:label="Копия Копия Слой 1"
     inkscape:groupmode="layer"
     id="g1352"
     style="display:inline"
     transform="translate(-1590.6287,-480.44965)">
    <g
       id="g1360"
       transform="rotate(-15,1602.1992,-3628.5014)">
      <path
         style="opacity:0.95;fill:#000000;fill-rule:evenodd;stroke-width:2.44535"
         id="path1340"
         d="m 748.85686,551.91643 c 16.02187,-13.24331 36.17987,-17.44498 55.89495,-22.24867 39.83161,-9.7052 25.63335,-6.49033 71.51332,-12.23244 32.76982,-1.97137 61.48862,-4.49447 94.35905,-3.30757 13.29337,0.48001 26.55268,1.88118 39.74382,3.59543 24.2145,3.1468 53.0972,8.49297 76.6736,15.9008 9.5527,3.00149 18.6661,7.25433 27.9992,10.88149 6.5956,4.16677 14.0118,7.2551 19.7869,12.5003 17.4968,15.89131 26.9012,47.23053 28.1789,70.28935 0.1782,3.2173 -0.3319,6.4359 -0.4979,9.6539 -0.6351,1.1953 -1.2702,2.3906 -1.9053,3.5859 -0.2989,0.6003 8.191,4.8279 8.4899,4.2276 v 0 c 1.4555,-2.2144 2.911,-4.4288 4.3665,-6.6432 0.7411,-3.9009 2.0219,-7.7372 2.2234,-11.7027 1.4414,-28.35938 -10.1309,-60.39537 -30.148,-80.60355 -6.1154,-6.17373 -13.8281,-10.52774 -20.7422,-15.79161 -9.5642,-4.50225 -18.8365,-9.68546 -28.6925,-13.50675 -56.784,-22.01574 -119.41232,-27.46636 -179.78893,-23.65112 -16.06611,1.01522 -32.0042,3.51184 -48.0063,5.26776 -30.8173,6.49446 -43.13357,7.99368 -71.4607,17.55902 -19.93493,6.73151 -40.44543,14.85061 -54.79593,30.85974 -0.37946,0.48141 6.42876,5.84773 6.80822,5.36632 z" />
      <path
         style="opacity:0.95;fill:#000000;fill-rule:evenodd;stroke-width:2.44535"
         id="path1342"
         d="m 1073.1863,701.815 c 2.8934,0.7747 5.8347,1.3886 8.6802,2.3241 5.8034,1.9081 11.4842,4.1714 17.2465,6.2001 8.9502,3.1512 17.9185,6.2508 26.8905,9.3395 34.6466,11.9275 69.1716,24.1635 103.725,36.3594 9.2435,3.1653 38.192,13.21 49.292,16.579 4.1815,1.2691 15.405,4.7615 21.3166,4.5049 2.0125,-0.087 3.9235,-0.9153 5.8853,-1.373 0.4993,-0.2862 -3.548,-7.3467 -4.0472,-7.0605 v 0 c 4.4964,-0.4313 3.0615,0.1168 -2.9703,-2.6841 -19.6776,-9.1372 -39.3941,-18.1928 -59.4982,-26.3724 -11.3359,-4.3089 -22.5741,-8.8844 -34.0079,-12.9268 -25.2641,-8.9321 -46.0202,-15.2332 -71.8272,-21.8811 -9.8929,-2.5484 -35.8879,-8.5282 -47.9477,-10.45 -3.2522,-0.5183 -6.5622,-0.5655 -9.8434,-0.8483 -0.5861,-0.2046 -3.4803,8.0845 -2.8942,8.2892 z" />
      <path
         style="opacity:0.95;fill:#000000;fill-rule:evenodd;stroke-width:2.44535"
         id="path1344"
         d="m 1190.0243,648.65654 c 15.7973,9.9414 32.3361,18.8216 47.4374,29.8492 13.4453,9.8184 29.2943,23.5375 41.2785,35.1005 5.5885,5.3921 10.7812,11.1799 16.1718,16.7699 11.444,12.5385 19.3854,27.4943 28.5008,41.6445 6.7294,10.4462 6.7273,10.0546 13.7033,18.8582 0.3738,0.6552 9.6399,-4.6306 9.2661,-5.2858 v 0 c -6.6531,-10.5826 -13.2979,-21.1659 -19.4105,-32.0754 -2.7298,-4.872 -5.039,-9.9827 -7.9665,-14.7385 -3.6458,-5.9229 -7.8189,-11.5045 -11.7284,-17.2568 -5.3215,-6.1469 -10.2849,-12.6229 -15.9643,-18.4407 -23.7763,-24.3556 -52.2546,-44.0611 -83.5384,-57.4882 -4.3623,-1.8723 -8.9326,-3.217 -13.3989,-4.8255 -0.5578,-0.3077 -4.9087,7.581 -4.3509,7.8886 z" />
      <path
         style="opacity:0.95;fill:#000000;fill-rule:evenodd;stroke-width:2.44535"
         id="path1346"
         d="m 743.73213,604.14847 c -0.21925,9.51964 -0.62752,19.29132 0.31654,28.75492 4.16258,41.72716 18.6904,81.18912 32.35045,120.51166 13.43403,32.87095 6.639,17.94419 19.88891,45.00286 0.32178,0.9403 13.61958,-3.61033 13.29781,-4.55063 v 0 c -9.46257,-27.82219 -4.24136,-12.63369 -15.72475,-45.54444 -13.59403,-38.27271 -27.63507,-76.80881 -36.42017,-116.55042 -1.31823,-5.96336 -2.02961,-12.04512 -3.11528,-18.05517 -0.61294,-3.39314 -1.32019,-6.76857 -1.98029,-10.15286 -0.0413,-0.60905 -8.65452,-0.025 -8.61322,0.58408 z" />
      <path
         style="opacity:0.95;fill:#000000;fill-rule:evenodd;stroke-width:2.44535"
         id="path1348"
         d="m 848.04458,802.83518 c 1.17519,-23.26583 -2.20616,-46.5135 -1.26447,-69.80231 0.2566,-6.3461 1.00798,-12.66251 1.51197,-18.99376 1.19352,-11.51508 1.84977,-18.83668 3.33783,-29.9477 1.03804,-7.75084 0.78512,-8.06139 3.62862,-13.8765 0.24694,-1.10939 0.49387,-2.21877 0.7408,-3.32816 0.095,-0.59032 -8.25338,-1.93422 -8.3484,-1.34389 v 0 c -0.10496,0.72024 -0.20992,1.44048 -0.31488,2.16072 0.011,0.29486 0.20256,0.64311 0.033,0.88459 -3.1785,4.5263 -1.30511,-1.4164 -4.51771,5.60435 -5.57571,12.18505 -6.31647,26.08302 -8.34527,39.07744 -0.35667,6.62129 -0.93607,13.23434 -1.07002,19.86388 -0.46989,23.25709 2.84089,46.26214 5.87728,69.24916 -0.032,0.6174 8.69928,1.06958 8.73126,0.45218 z" />
      <path
         style="opacity:0.95;fill:#000000;fill-opacity:1;fill-rule:evenodd;stroke:#000000;stroke-width:2.44535;stroke-opacity:1"
         id="path1350"
         d="m 697.76959,577.20514 c -21.27999,0.3816 -42.1677,-3.28863 -62.84294,-8.04722 -10.41604,-2.39734 -20.85029,-4.79754 -31.06752,-7.93588 -10.40522,-3.19608 -20.48671,-7.36398 -30.73007,-11.04598 -9.01194,-5.75076 -18.66243,-10.60602 -27.03581,-17.25229 -20.27186,-16.09053 -37.55425,-38.59392 -35.53582,-66.02325 1.37101,-18.63124 10.30612,-26.72911 20.59547,-41.65302 13.96021,-13.82817 24.61225,-26.87933 43.08992,-35.17568 24.63759,-11.0621 54.06547,-10.0513 78.08297,2.2293 8.45732,4.32439 15.40295,11.12007 23.10442,16.68011 6.29871,7.04692 13.17518,13.61723 18.89613,21.14076 5.6199,7.39065 10.39848,15.40471 15.0177,23.45877 8.26221,14.40595 17.69139,33.70679 19.81236,50.62432 0.39952,3.18671 0.0518,6.4231 0.0777,9.63465 -0.77815,10.99772 -6.5994,25.94594 -3.11833,36.78196 0.48752,1.51759 1.42093,2.85375 2.1314,4.28063 0.90721,1.0166 1.81442,2.03319 2.72163,3.04979 0.36224,0.4838 7.20422,-4.63908 6.84198,-5.12288 v 0 c -0.51482,-0.46433 -1.02963,-0.92865 -1.54445,-1.39297 -2.51178,-4.28699 -1.98248,-5.32687 -1.00417,-10.35886 1.74104,-8.95523 3.34467,-17.92956 4.91812,-26.91669 0.27176,-3.83073 0.91322,-7.65308 0.81527,-11.49219 -0.74454,-29.18082 -15.50215,-59.45178 -32.57376,-82.36622 -6.29312,-8.44698 -13.8894,-15.83994 -20.8341,-23.75991 -20.84044,-14.86143 -30.54748,-25.5624 -56.90416,-29.52772 -23.72883,-3.56997 -46.70998,0.0745 -68.08335,10.70988 -21.50052,10.69865 -30.13915,22.97918 -46.11896,40.03424 -10.56562,18.23939 -19.81392,28.98682 -21.37021,50.58729 -2.29153,31.80514 14.98183,58.81593 38.70298,78.28923 9.15485,7.51544 19.91416,12.82959 29.87124,19.24438 10.80147,3.88961 21.36698,8.51035 32.4044,11.66882 29.25442,8.37147 65.86819,12.47069 96.43932,9.2761 2.78641,-0.29117 5.53337,-0.88171 8.30005,-1.32257 0.58668,-0.21633 -2.47271,-8.51324 -3.05939,-8.2969 z" />
    </g>
  </g>
</svg>
